<svg xmlns="http://www.w3.org/2000/svg" xmlns:xlink="http://www.w3.org/1999/xlink" viewBox="0 0 128 128"><path fill="#ffeb3b" d="M22.1 35.6A59.8 59.8 0 0171 4.4 2 2 0 0172.3 8a59.6 59.6 0 00-18.8 34.3c-1.3 7.6 1.2 15.2 9.8 20.6 3.2 2 6.7 1.5 7.9 5.7.7 2.7-2.2 5.1-5.7 6.6-3.8 1.5-6 8.8 1.1 17.3 1.6 1.8 5.8.9 8.5 3.3s-.3 4.8 4.8 7.3a51.3 51.3 0 0030.5 4.7c2-.3 3.1 2.2 1.5 3.5a60 60 0 01-89.8-75.6z"/><radialGradient id="a" cx="35.9" cy="82.5" r="14.1" gradientTransform="rotate(20.6 62.5 65)" gradientUnits="userSpaceOnUse"><stop offset=".2" stop-color="#fdd835"/><stop offset=".4" stop-color="#fdda38"/><stop offset=".6" stop-color="#fee042"/><stop offset=".8" stop-color="#ffea52"/><stop offset=".9" stop-color="#ffee58"/></radialGradient><path fill="url(#a)" d="M42.2 78c-1.2 6-7.4 9.7-13.7 8.3S18 79.1 19.3 73.1s7.4-9.6 13.8-8.3c6.3 1.4 10.4 7.3 9.1 13.2z" opacity=".5"/><radialGradient id="b" cx="61.9" cy="99.9" r="13.2" gradientTransform="rotate(20.6 62.5 65)" gradientUnits="userSpaceOnUse"><stop offset=".2" stop-color="#fdd835"/><stop offset=".4" stop-color="#fdda38"/><stop offset=".6" stop-color="#fee042"/><stop offset=".8" stop-color="#ffea52"/><stop offset=".9" stop-color="#ffee58"/></radialGradient><path fill="url(#b)" d="M54 109.3a7.5 7.5 0 11-12.8-7.7c2.2-3.5 6.8-4.7 10.3-2.5s4.6 6.7 2.5 10.2z" opacity=".6"/><radialGradient id="c" cx="23.8" cy="66" r="9.1" gradientTransform="rotate(20.6 62.5 65)" gradientUnits="userSpaceOnUse"><stop offset=".2" stop-color="#fdd835"/><stop offset=".4" stop-color="#fdda38"/><stop offset=".6" stop-color="#fee042"/><stop offset=".8" stop-color="#ffea52"/><stop offset=".9" stop-color="#ffee58"/></radialGradient><path fill="url(#c)" d="M28.9 60.5a5.1 5.1 0 01-7 1.7 5.1 5.1 0 015.3-8.7 5.1 5.1 0 011.7 7z" opacity=".3"/><radialGradient id="d" cx="79.4" cy="103.2" r="15" gradientTransform="rotate(20.6 62.5 65)" gradientUnits="userSpaceOnUse"><stop offset=".2" stop-color="#fdd835"/><stop offset=".4" stop-color="#fdda38"/><stop offset=".6" stop-color="#fee042"/><stop offset=".8" stop-color="#ffea52"/><stop offset=".9" stop-color="#ffee58"/></radialGradient><circle cx="64.3" cy="110.1" r="8.8" fill="url(#d)" opacity=".6"/><defs><path id="e" d="M64.1 79a4.4 4.4 0 00-2 4.7c1.4 5.5 4 8.1 4 8.1s-8 5.8-16.3 1.4c-8.2-4.3-16.9-8.9-12.1-12.9 7.9-6.6 28.2-2.2 26.4-1.4z"/></defs><clipPath id="f"><use overflow="visible" xlink:href="#e"/></clipPath><path fill="#6d4c41" d="M68 82.1c8.4-2.8 15-8.3 19-15 .8-1.3 3-.6 2.7 1a28.4 28.4 0 01-47.5 16.3c-1.2-1 0-3 1.6-2.4 7.2 2.7 15.8 3 24.2.1z" clip-path="url(#f)"/><path fill="#6d4c41" d="M43 45.7c3.3 0 6.3 3.3 6.3 8.6S46.3 63 43 63s-6.3-3.2-6.3-8.6 3-8.6 6.3-8.6z"/><g opacity=".2"><path fill="#424242" d="M68 7.7a63.6 63.6 0 00-17.5 34c-1.6 9.7 2.4 18 11.2 23.6 1.3.9 2.6 1.3 3.7 1.7 2.1.8 2.6 1 2.9 2.3.1.3-1 1.8-4 3a8.9 8.9 0 00-5 6.3c-1.2 4.8.7 10.6 5 15.7 1.5 1.7 3.5 2 5.3 2.4 1.4.3 2.7.5 3.5 1.2.3.3.3.3.4 1.2.3 2.1 1 4.6 5 6.6A53 53 0 00107 111a57.3 57.3 0 01-63.7.5A57.2 57.2 0 0124.8 37 56.7 56.7 0 0168 7.7m3-3.3h-.1a59.8 59.8 0 1041 106.8c1.5-1.2.6-3.5-1.2-3.5h-.3A50 50 0 0180 103c-5.2-2.5-2.1-4.9-4.8-7.3-2.7-2.5-7-1.5-8.5-3.3-7.1-8.5-4.9-15.8-1.1-17.3 3.5-1.5 6.4-4 5.7-6.7-1.2-4-4.7-3.6-7.9-5.6-8.6-5.4-11-13-9.8-20.6 2.3-14 10-26.9 18.8-34.4 1.4-1.1.5-3.4-1.3-3.4z"/></g></svg>