<svg xmlns="http://www.w3.org/2000/svg" viewBox="0 0 30 30">
  <path d="M14 30h-1v-1-1s1 0 0 0v-1-2l-3 4-1-1v-1h1v-1-2-1l-4 3H5l1-1 1-1 1-2v-1l-5 2-1-1h1l1-1 2-2H1v-1h1l1-1 2-1-4-2H0v-1h2s0 1 0 0h3l-4-3V9h2v1h4L4 6V5l1 1 1 1 2 1h1L7 3V2h1v1l1 1a13 13 0 002 2V1l1-1v2l1 1a13 13 0 001 2l2-4V0h1v2s-1 0 0 0v1a13 13 0 000 2l3-4h1v2h-1v1a13 13 0 000 3l4-3h1l-1 1-1 1v2l-1 1 5-2h1v1h-1l-1 1-2 2h5v1h-1l-1 1-2 1 4 2h1v1h-1-1s0-1 0 0h-3l4 3v1h-1-1v-1h-3-1l3 4v1l-1-1-1-1h-2l-1-1 2 5v1h-1v-1l-1-1-2-2v5h-1v-1l-1-1-1-2-2 4v1zm-1-7v2l1 2v1a7 7 0 001-4h1v1a14 14 0 012 2v1a7 7 0 000-4v-1h1v1l2 1 1 1-1-3v-1c-1 0 0 0 0 0h1l2 1h1a7 7 0 00-2-3c-1 0-1 0 0 0v-1h1l2 1h1l-3-2v-1h1l2-1a40 40 0 001 0 7 7 0 00-4-1v-1h1l2-2h1-5v-1h1l1-2 1-1-3 1-1 1V9s-1 0 0 0V8l1-2V5l-2 2-1 1-1-1V6l1-2V3l-2 3v1h-1V5a14 14 0 01-1-3l-1 3v1h-1V5a14 14 0 01-2-2V2v5h-1V6L9 5a39 39 0 00-1-1l1 3 1 1-1 1-1-1-2-1a39 39 0 00-1 0l2 2 1 1v1H6l-2-1H3l3 2 1 1H5l-2 1H2l3 1h2l-1 1H5l-2 2H2h5v1H6l-1 2a39 39 0 00-1 1l3-1 1-1 1 1-1 1-1 2v1l2-2 1-1 1 1v1a14 14 0 01-1 3l2-3 1-1zm12-6z"/>
  <path fill="#ffca00" d="M13 23v2l1 2v1a7 7 0 001-4h1v1a14 14 0 012 2v1a7 7 0 000-4v-1h1v1l2 1 1 1-1-3v-1c-1 0 0 0 0 0h1l2 1h1a7 7 0 00-2-3c-1 0-1 0 0 0v-1h1l2 1h1l-3-2v-1h1l2-1a40 40 0 001 0 7 7 0 00-4-1v-1h1l2-2h1-5v-1h1l1-2 1-1-3 1-1 1V9s-1 0 0 0V8l1-2V5l-2 2-1 1-1-1V6l1-2V3l-2 3v1h-1V5a14 14 0 01-1-3l-1 3v1h-1V5a14 14 0 01-2-2V2v5h-1V6a14 14 0 01-3-2l1 3 1 1-1 1-1-1a14 14 0 01-3-1l2 2 1 1v1H6l-2-1H3l3 2 1 1H5l-2 1H2l3 1h2l-1 1H5l-2 2H2h5v1H6l-1 2-1 1 3-1 1-1 1 1-1 1-1 2v1l2-2 1-1 1 1v1a14 14 0 01-1 3l2-3 1-1z"/>
  <circle cx="15" cy="15" r="7.3" fill="#f9e52f" opacity=".5"/>
  <circle cx="15" cy="15" r="6" fill="#f5a800" opacity=".6"/>
  <path d="M15 23a8 8 0 110-16 8 8 0 010 16zm0-15a7 7 0 100 14 7 7 0 000-14z"/>
  <path d="M21 15c0-3-3-6-6-6 3 0 6 2 6 6z"/>
  <ellipse cx="13.8" cy="13" fill="#fbe68f" opacity=".6" rx="3.8" ry="2.7" transform="rotate(-13 14 13)"/>
</svg>
