<svg xmlns="http://www.w3.org/2000/svg" xmlns:xlink="http://www.w3.org/1999/xlink" x="0" y="0" enable-background="new 0 0 1000 1000" version="1.1" viewBox="0 0 1000 1000" xml:space="preserve" style="fill:#bee"><g><path d="M756.6,627.3l-130.9-42.7l-109.4,83.7l0.2-137.7L403,452.3l131-42.4l39.3-132l80.8,111.6l137.7-3.4l-81.1,111.4L756.6,627.3z"/><path d="M829.6,289.1L776,232.4L699,244.4l37.3-68.4l-35.2-69.5l76.6,14.3l55.3-55l10.1,77.3l69.3,35.6L842,212.1L829.6,289.1z"/><path d="M940.5,597.3l-32-33.9l-46.1,7.2l22.3-40.9l-21.1-41.6l45.8,8.5l33.1-32.9l6,46.3l41.5,21.2l-42.1,20L940.5,597.3z"/><path d="M493.5,305.8l-47.7-22.9l-45.9,26.3l7-52.5l-39.2-35.4l52-9.5l21.7-48.3l25.1,46.7l52.6,5.6L482.7,254L493.5,305.8z"/><path d="M692.4,778.9c-235.9,0-427.2-191.3-427.2-427.3c0-99.8,34.5-191.4,91.8-264.1C159.5,125.1,10,298.4,10,507c0,236,191.3,427.3,427.3,427.3c136.2,0,257.2-63.9,335.4-163.1C746.7,776.1,719.9,778.9,692.4,778.9z"/></g></svg>